<svg width="1024" height="1024" xmlns="http://www.w3.org/2000/svg" version="1.1">

 <g>
  <title>Layer 1</title>
  <g id="layer1">
   <path stroke-miterlimit="4" stroke-linejoin="round" stroke-linecap="round" stroke-width="16" stroke="#000000" fill-rule="evenodd" fill="#ffffff" id="path3284" d="m245.28571,504.14286c-129.32726,-177.33503 -81.51982,-438.79868 264.28572,-442.85715c346.16408,-0.59406 406.05549,277.50725 274.28571,431.42857c8.46649,81.81087 8.70743,150.69812 -54.28571,168.57143c-25.71099,108.09524 -16.07508,176.19048 -31.42857,211.42858c-71.87565,126.98587 -296.24079,132.73772 -367.14286,1.42857c-16.3537,-41.21543 -2.47968,-108.67493 -34.25446,-219.03572c-43.92071,-16.88757 -56.99162,-69.40806 -51.45983,-150.96428zm0,-222.85715c-17.59974,40.73409 -9.16333,66.77865 7.42858,110.14286c10.36401,26.90476 -2.21101,80.80953 -7.42858,112.71429m542.85715,-222.85715c12.29402,25.79332 10.01232,51.56456 -7,104c-11.58993,30.47619 0.10253,76.95238 2.71428,107.42857m-398.32143,244.14286c-10.53504,-35.20272 -52.53634,-70.40668 -88.79017,-81.75m349.59375,79.875c16.62092,-41.97389 39.13588,-71.99496 83.23214,-73.69643"/>
   <path stroke-miterlimit="4" stroke-linejoin="round" stroke-linecap="round" stroke-width="8" stroke="#000000" fill-rule="evenodd" fill="none" id="path3289" d="m331,669c21.01189,47.92858 32.25073,99.76637 40,153c48.14101,60.93798 214.10511,78.92024 285,-3c4.80593,-50.91045 22.64395,-100.37289 39,-150l-48.66071,65.98214c-5.7084,41.23212 -253.33798,38.59613 -260.80358,1.875l-54.53571,-67.85714zm63.5,172l0,-92m28.5,109l1,-101m29.5,108l0.5,-103m29.5,108.5c0,-2 0.5,-106 0.5,-106m30.5,109.5l-0.5,-108.5m31.5,104.5l-0.5,-105m29,100.5l-1,-103.5m33.5,91.5l-1.5,-95.5m30,79l-1,-88.5m-1,45c-81.57273,35.5365 -154.09125,38.05497 -238,0"/>
   <path stroke-width="1px" fill-rule="evenodd" fill="#000000" id="path3287" d="m300.25,460.75c-5.68981,20.92871 -1.79034,47.67527 5.75,71.25c9.4422,29.5578 30.8971,47.1029 67,50c41.69936,1.05449 68.26188,-23.11909 86,-62c4.90603,-11.72931 7.98314,-31.34457 3,-53c-2.92837,-11.01791 -16.77401,-27.369 -30.25,-35.75c-24.64077,-14.78154 -121.95596,-6.41192 -131.5,29.5zm430.53743,-2.67081c5.68981,20.92871 1.79034,47.67527 -5.75,71.25c-9.4422,29.5578 -30.8971,47.1029 -67,50c-41.69936,1.05449 -68.26188,-23.11909 -86,-62c-4.90603,-11.72931 -7.98314,-31.34457 -3,-53c2.92837,-11.01791 16.77401,-27.369 30.25,-35.75c24.64077,-14.78154 121.95596,-6.41192 131.5,29.5zm-226.28743,96.92081l0,118c-17.45348,26.54455 -23.55845,28.54925 -33.5,28c-13.09329,0.04665 -21.92488,-19.53756 -19.5,-42c6.41738,-71.20314 28.01837,-85.86503 53,-104zm17.7995,0.46424l0,118c17.45348,26.54455 23.55845,28.54925 33.5,28c13.09329,0.04665 21.92488,-19.53756 19.5,-42c-6.41738,-71.20314 -28.01837,-85.86503 -53,-104z"/>
  </g>
 </g>
</svg>