<svg id="Layer_1" data-name="Layer 1" xmlns="http://www.w3.org/2000/svg" viewBox="0 0 512 512"><defs><style>.cls-1{fill:#141f38;}</style></defs><title>chart-glyph</title><path class="cls-1" d="M512,460.77A12.81,12.81,0,0,1,506.88,471l-51.2,38.42a12.8,12.8,0,0,1-15.36-20.49l20.48-15.37H51.2a12.8,12.8,0,0,1-12.8-12.81V50.94L23,71.43A12.8,12.8,0,1,1,2.56,56.06L41,4.83c4.82-6.44,15.65-6.44,20.47,0l38.4,51.23A12.8,12.8,0,1,1,79.36,71.43L64,50.94V448H460.8l-20.48-15.37a12.8,12.8,0,0,1,15.36-20.49l51.2,38.42A12.81,12.81,0,0,1,512,460.77ZM140.8,358.31a38.38,38.38,0,0,0,35.66-52.62l47.94-42a38.3,38.3,0,0,0,40.09-1.5L309,295.59a38.41,38.41,0,1,0,68.29-10.26L437.06,203A38.44,38.44,0,1,0,416.36,188l-59.83,82.31a38.26,38.26,0,0,0-32.22,4.84l-44.47-33.37a38.41,38.41,0,1,0-72.31,2.71l-47.94,42a38.41,38.41,0,1,0-18.8,71.9Z"/></svg>